<mxfile host="app.diagrams.net" agent="Mozilla/5.0 (X11; Linux x86_64) AppleWebKit/537.36 (KHTML, like Gecko) Chrome/136.0.0.0 Safari/537.36" version="27.0.4">
  <diagram name="Seite-1" id="40d2zj_hic7THKUdpV59">
    <mxGraphModel dx="1426" dy="791" grid="1" gridSize="10" guides="1" tooltips="1" connect="1" arrows="1" fold="1" page="1" pageScale="1" pageWidth="827" pageHeight="1169" math="0" shadow="0">
      <root>
        <mxCell id="0" />
        <mxCell id="1" parent="0" />
        <mxCell id="ntfBUJS46pO4bsrbWIn4-1" value="Home.razor" style="shape=umlLifeline;perimeter=lifelinePerimeter;whiteSpace=wrap;html=1;container=1;dropTarget=0;collapsible=0;recursiveResize=0;outlineConnect=0;portConstraint=eastwest;newEdgeStyle={&quot;curved&quot;:0,&quot;rounded&quot;:0};fillColor=#e1d5e7;strokeColor=#9673a6;strokeWidth=2;" vertex="1" parent="1">
          <mxGeometry x="160" y="160" width="100" height="760" as="geometry" />
        </mxCell>
        <mxCell id="ntfBUJS46pO4bsrbWIn4-3" value="" style="html=1;points=[[0,0,0,0,5],[0,1,0,0,-5],[1,0,0,0,5],[1,1,0,0,-5]];perimeter=orthogonalPerimeter;outlineConnect=0;targetShapes=umlLifeline;portConstraint=eastwest;newEdgeStyle={&quot;curved&quot;:0,&quot;rounded&quot;:0};fillColor=#e1d5e7;strokeColor=#9673a6;" vertex="1" parent="ntfBUJS46pO4bsrbWIn4-1">
          <mxGeometry x="45" y="70" width="10" height="370" as="geometry" />
        </mxCell>
        <mxCell id="ntfBUJS46pO4bsrbWIn4-39" value="" style="html=1;points=[[0,0,0,0,5],[0,1,0,0,-5],[1,0,0,0,5],[1,1,0,0,-5]];perimeter=orthogonalPerimeter;outlineConnect=0;targetShapes=umlLifeline;portConstraint=eastwest;newEdgeStyle={&quot;curved&quot;:0,&quot;rounded&quot;:0};fillColor=#e1d5e7;strokeColor=#9673a6;" vertex="1" parent="ntfBUJS46pO4bsrbWIn4-1">
          <mxGeometry x="45" y="490" width="10" height="50" as="geometry" />
        </mxCell>
        <mxCell id="ntfBUJS46pO4bsrbWIn4-2" value="OnAfterRenderAsync()" style="html=1;verticalAlign=bottom;startArrow=circle;startFill=1;endArrow=open;startSize=6;endSize=8;curved=0;rounded=0;" edge="1" parent="1" target="ntfBUJS46pO4bsrbWIn4-1">
          <mxGeometry width="80" relative="1" as="geometry">
            <mxPoint x="60" y="230" as="sourcePoint" />
            <mxPoint x="140" y="270" as="targetPoint" />
            <Array as="points">
              <mxPoint x="60" y="240" />
              <mxPoint x="100" y="240" />
            </Array>
          </mxGeometry>
        </mxCell>
        <mxCell id="ntfBUJS46pO4bsrbWIn4-4" value="GlobalChatService" style="shape=umlLifeline;perimeter=lifelinePerimeter;whiteSpace=wrap;html=1;container=1;dropTarget=0;collapsible=0;recursiveResize=0;outlineConnect=0;portConstraint=eastwest;newEdgeStyle={&quot;curved&quot;:0,&quot;rounded&quot;:0};fillColor=#d5e8d4;strokeColor=#82b366;strokeWidth=2;" vertex="1" parent="1">
          <mxGeometry x="354" y="160" width="120" height="580" as="geometry" />
        </mxCell>
        <mxCell id="ntfBUJS46pO4bsrbWIn4-7" value="" style="html=1;points=[[0,0,0,0,5],[0,1,0,0,-5],[1,0,0,0,5],[1,1,0,0,-5]];perimeter=orthogonalPerimeter;outlineConnect=0;targetShapes=umlLifeline;portConstraint=eastwest;newEdgeStyle={&quot;curved&quot;:0,&quot;rounded&quot;:0};fillColor=#d5e8d4;strokeColor=#82b366;" vertex="1" parent="ntfBUJS46pO4bsrbWIn4-4">
          <mxGeometry x="55" y="140" width="10" height="130" as="geometry" />
        </mxCell>
        <mxCell id="ntfBUJS46pO4bsrbWIn4-16" value="hubconnection()" style="html=1;align=left;spacingLeft=2;endArrow=block;rounded=0;edgeStyle=orthogonalEdgeStyle;curved=0;rounded=0;" edge="1" target="ntfBUJS46pO4bsrbWIn4-15" parent="ntfBUJS46pO4bsrbWIn4-4">
          <mxGeometry x="-0.7822" y="10" relative="1" as="geometry">
            <mxPoint x="65" y="180" as="sourcePoint" />
            <Array as="points">
              <mxPoint x="156" y="180" />
              <mxPoint x="156" y="180" />
            </Array>
            <mxPoint as="offset" />
          </mxGeometry>
        </mxCell>
        <mxCell id="ntfBUJS46pO4bsrbWIn4-27" value="" style="html=1;points=[[0,0,0,0,5],[0,1,0,0,-5],[1,0,0,0,5],[1,1,0,0,-5]];perimeter=orthogonalPerimeter;outlineConnect=0;targetShapes=umlLifeline;portConstraint=eastwest;newEdgeStyle={&quot;curved&quot;:0,&quot;rounded&quot;:0};fillColor=#d5e8d4;strokeColor=#82b366;" vertex="1" parent="ntfBUJS46pO4bsrbWIn4-4">
          <mxGeometry x="55" y="350" width="10" height="80" as="geometry" />
        </mxCell>
        <mxCell id="ntfBUJS46pO4bsrbWIn4-6" value="set callback" style="html=1;verticalAlign=bottom;endArrow=block;curved=0;rounded=0;" edge="1" parent="1">
          <mxGeometry width="80" relative="1" as="geometry">
            <mxPoint x="213.99666666666653" y="270" as="sourcePoint" />
            <mxPoint x="413.83" y="270" as="targetPoint" />
          </mxGeometry>
        </mxCell>
        <mxCell id="ntfBUJS46pO4bsrbWIn4-8" value="Connect()" style="html=1;verticalAlign=bottom;endArrow=block;curved=0;rounded=0;" edge="1" parent="1">
          <mxGeometry width="80" relative="1" as="geometry">
            <mxPoint x="215" y="320" as="sourcePoint" />
            <mxPoint x="409" y="320" as="targetPoint" />
          </mxGeometry>
        </mxCell>
        <mxCell id="ntfBUJS46pO4bsrbWIn4-9" value="GlobalChatHub" style="shape=umlLifeline;perimeter=lifelinePerimeter;whiteSpace=wrap;html=1;container=1;dropTarget=0;collapsible=0;recursiveResize=0;outlineConnect=0;portConstraint=eastwest;newEdgeStyle={&quot;curved&quot;:0,&quot;rounded&quot;:0};fillColor=#ffe6cc;strokeColor=#d79b00;strokeWidth=2;" vertex="1" parent="1">
          <mxGeometry x="570" y="160" width="120" height="760" as="geometry" />
        </mxCell>
        <mxCell id="ntfBUJS46pO4bsrbWIn4-44" value="" style="html=1;points=[[0,0,0,0,5],[0,1,0,0,-5],[1,0,0,0,5],[1,1,0,0,-5]];perimeter=orthogonalPerimeter;outlineConnect=0;targetShapes=umlLifeline;portConstraint=eastwest;newEdgeStyle={&quot;curved&quot;:0,&quot;rounded&quot;:0};fillColor=#f8cecc;strokeColor=#b85450;" vertex="1" parent="ntfBUJS46pO4bsrbWIn4-9">
          <mxGeometry x="55" y="540" width="10" height="80" as="geometry" />
        </mxCell>
        <mxCell id="ntfBUJS46pO4bsrbWIn4-60" value="" style="html=1;points=[[0,0,0,0,5],[0,1,0,0,-5],[1,0,0,0,5],[1,1,0,0,-5]];perimeter=orthogonalPerimeter;outlineConnect=0;targetShapes=umlLifeline;portConstraint=eastwest;newEdgeStyle={&quot;curved&quot;:0,&quot;rounded&quot;:0};fillColor=#f8cecc;strokeColor=#b85450;" vertex="1" parent="ntfBUJS46pO4bsrbWIn4-9">
          <mxGeometry x="55" y="680" width="10" height="70" as="geometry" />
        </mxCell>
        <mxCell id="ntfBUJS46pO4bsrbWIn4-21" value="" style="endArrow=classic;startArrow=classic;html=1;rounded=0;exitX=1;exitY=0.158;exitDx=0;exitDy=0;exitPerimeter=0;" edge="1" parent="1">
          <mxGeometry width="50" height="50" relative="1" as="geometry">
            <mxPoint x="570" y="400.03999999999996" as="sourcePoint" />
            <mxPoint x="629.5" y="400" as="targetPoint" />
            <Array as="points">
              <mxPoint x="610" y="400" />
            </Array>
          </mxGeometry>
        </mxCell>
        <mxCell id="ntfBUJS46pO4bsrbWIn4-17" value="" style="html=1;verticalAlign=bottom;endArrow=open;dashed=1;endSize=8;curved=0;rounded=0;" edge="1" parent="1" source="ntfBUJS46pO4bsrbWIn4-15">
          <mxGeometry relative="1" as="geometry">
            <mxPoint x="520" y="410.0000000000001" as="sourcePoint" />
            <mxPoint x="419" y="410" as="targetPoint" />
            <Array as="points">
              <mxPoint x="460" y="410" />
              <mxPoint x="440" y="410" />
            </Array>
          </mxGeometry>
        </mxCell>
        <mxCell id="ntfBUJS46pO4bsrbWIn4-15" value="" style="html=1;points=[[0,0,0,0,5],[0,1,0,0,-5],[1,0,0,0,5],[1,1,0,0,-5]];perimeter=orthogonalPerimeter;outlineConnect=0;targetShapes=umlLifeline;portConstraint=eastwest;newEdgeStyle={&quot;curved&quot;:0,&quot;rounded&quot;:0};fillColor=#fff2cc;strokeColor=#d6b656;" vertex="1" parent="1">
          <mxGeometry x="560" y="330" width="10" height="550" as="geometry" />
        </mxCell>
        <mxCell id="ntfBUJS46pO4bsrbWIn4-23" value="startAsync()" style="html=1;align=left;spacingLeft=2;endArrow=block;rounded=0;edgeStyle=orthogonalEdgeStyle;curved=0;rounded=0;" edge="1" parent="1" target="ntfBUJS46pO4bsrbWIn4-15">
          <mxGeometry x="-0.7822" y="10" relative="1" as="geometry">
            <mxPoint x="419" y="369.5" as="sourcePoint" />
            <Array as="points">
              <mxPoint x="419" y="390" />
            </Array>
            <mxPoint x="530" y="369.5" as="targetPoint" />
            <mxPoint as="offset" />
          </mxGeometry>
        </mxCell>
        <mxCell id="ntfBUJS46pO4bsrbWIn4-24" value="" style="html=1;verticalAlign=bottom;endArrow=open;dashed=1;endSize=8;curved=0;rounded=0;" edge="1" parent="1">
          <mxGeometry x="0.0021" relative="1" as="geometry">
            <mxPoint x="409" y="420" as="sourcePoint" />
            <mxPoint x="215" y="420" as="targetPoint" />
            <mxPoint as="offset" />
          </mxGeometry>
        </mxCell>
        <mxCell id="ntfBUJS46pO4bsrbWIn4-25" value="LoadLatestMessages()" style="html=1;verticalAlign=bottom;endArrow=block;curved=0;rounded=0;" edge="1" parent="1" target="ntfBUJS46pO4bsrbWIn4-27">
          <mxGeometry width="80" relative="1" as="geometry">
            <mxPoint x="215" y="520" as="sourcePoint" />
            <mxPoint x="340" y="520" as="targetPoint" />
          </mxGeometry>
        </mxCell>
        <mxCell id="ntfBUJS46pO4bsrbWIn4-28" value="/api/globalchat" style="shape=umlLifeline;perimeter=lifelinePerimeter;whiteSpace=wrap;html=1;container=1;dropTarget=0;collapsible=0;recursiveResize=0;outlineConnect=0;portConstraint=eastwest;newEdgeStyle={&quot;curved&quot;:0,&quot;rounded&quot;:0};fillColor=#dae8fc;strokeColor=#6c8ebf;strokeWidth=2;" vertex="1" parent="1">
          <mxGeometry x="730" y="160" width="120" height="460" as="geometry" />
        </mxCell>
        <mxCell id="ntfBUJS46pO4bsrbWIn4-29" value="AppDbContext" style="shape=cylinder3;whiteSpace=wrap;html=1;boundedLbl=1;backgroundOutline=1;size=15;fillColor=#dae8fc;strokeColor=#6c8ebf;" vertex="1" parent="1">
          <mxGeometry x="800" y="668" width="90" height="110" as="geometry" />
        </mxCell>
        <mxCell id="ntfBUJS46pO4bsrbWIn4-31" value="messages" style="html=1;verticalAlign=bottom;endArrow=open;dashed=1;endSize=8;curved=0;rounded=0;" edge="1" parent="1">
          <mxGeometry relative="1" as="geometry">
            <mxPoint x="789.5" y="560" as="sourcePoint" />
            <mxPoint x="419" y="560" as="targetPoint" />
          </mxGeometry>
        </mxCell>
        <mxCell id="ntfBUJS46pO4bsrbWIn4-32" value="get" style="html=1;verticalAlign=bottom;endArrow=block;curved=0;rounded=0;" edge="1" parent="1">
          <mxGeometry width="80" relative="1" as="geometry">
            <mxPoint x="420" y="540" as="sourcePoint" />
            <mxPoint x="790.5" y="540" as="targetPoint" />
          </mxGeometry>
        </mxCell>
        <mxCell id="ntfBUJS46pO4bsrbWIn4-34" value="onmessage += callback" style="html=1;align=left;spacingLeft=2;endArrow=block;rounded=0;edgeStyle=orthogonalEdgeStyle;curved=0;rounded=0;" edge="1" parent="1">
          <mxGeometry x="-0.844" y="15" relative="1" as="geometry">
            <mxPoint x="419" y="369.72" as="sourcePoint" />
            <Array as="points">
              <mxPoint x="550" y="369.72" />
              <mxPoint x="550" y="369.72" />
            </Array>
            <mxPoint x="560" y="369.72" as="targetPoint" />
            <mxPoint as="offset" />
          </mxGeometry>
        </mxCell>
        <mxCell id="ntfBUJS46pO4bsrbWIn4-36" value="" style="html=1;verticalAlign=bottom;endArrow=open;dashed=1;endSize=8;curved=0;rounded=0;" edge="1" parent="1">
          <mxGeometry relative="1" as="geometry">
            <mxPoint x="409" y="580" as="sourcePoint" />
            <mxPoint x="215" y="580" as="targetPoint" />
          </mxGeometry>
        </mxCell>
        <mxCell id="ntfBUJS46pO4bsrbWIn4-38" value="sendMessage()" style="html=1;verticalAlign=bottom;endArrow=block;curved=0;rounded=0;" edge="1" parent="1" target="ntfBUJS46pO4bsrbWIn4-39">
          <mxGeometry width="80" relative="1" as="geometry">
            <mxPoint x="80" y="660" as="sourcePoint" />
            <mxPoint x="160" y="660" as="targetPoint" />
          </mxGeometry>
        </mxCell>
        <mxCell id="ntfBUJS46pO4bsrbWIn4-40" value="sendMessage()" style="html=1;verticalAlign=bottom;endArrow=block;curved=0;rounded=0;" edge="1" parent="1">
          <mxGeometry width="80" relative="1" as="geometry">
            <mxPoint x="215" y="690" as="sourcePoint" />
            <mxPoint x="413.5" y="690" as="targetPoint" />
          </mxGeometry>
        </mxCell>
        <mxCell id="ntfBUJS46pO4bsrbWIn4-41" value="BroadCastMessage()" style="html=1;verticalAlign=bottom;endArrow=block;curved=0;rounded=0;" edge="1" parent="1">
          <mxGeometry width="80" relative="1" as="geometry">
            <mxPoint x="413.00034482758605" y="699.9999999999999" as="sourcePoint" />
            <mxPoint x="559.19" y="699.9999999999999" as="targetPoint" />
          </mxGeometry>
        </mxCell>
        <mxCell id="ntfBUJS46pO4bsrbWIn4-45" value="" style="html=1;verticalAlign=bottom;endArrow=block;curved=0;rounded=0;" edge="1" parent="1">
          <mxGeometry width="80" relative="1" as="geometry">
            <mxPoint x="570" y="710" as="sourcePoint" />
            <mxPoint x="625" y="710" as="targetPoint" />
          </mxGeometry>
        </mxCell>
        <mxCell id="ntfBUJS46pO4bsrbWIn4-46" value="You" style="shape=umlActor;verticalLabelPosition=bottom;verticalAlign=top;html=1;outlineConnect=0;" vertex="1" parent="1">
          <mxGeometry x="40" y="650" width="30" height="60" as="geometry" />
        </mxCell>
        <mxCell id="ntfBUJS46pO4bsrbWIn4-47" value="" style="sketch=0;outlineConnect=0;fontColor=#232F3E;gradientColor=none;fillColor=#232F3D;strokeColor=none;dashed=0;verticalLabelPosition=bottom;verticalAlign=top;align=center;html=1;fontSize=12;fontStyle=0;aspect=fixed;pointerEvents=1;shape=mxgraph.aws4.users;" vertex="1" parent="1">
          <mxGeometry x="680" y="740" width="38" height="38" as="geometry" />
        </mxCell>
        <mxCell id="ntfBUJS46pO4bsrbWIn4-48" value="" style="endArrow=classic;html=1;rounded=0;" edge="1" parent="1" source="ntfBUJS46pO4bsrbWIn4-44" target="ntfBUJS46pO4bsrbWIn4-47">
          <mxGeometry width="50" height="50" relative="1" as="geometry">
            <mxPoint x="440" y="650" as="sourcePoint" />
            <mxPoint x="490" y="600" as="targetPoint" />
          </mxGeometry>
        </mxCell>
        <mxCell id="ntfBUJS46pO4bsrbWIn4-49" value="onmessage" style="html=1;verticalAlign=bottom;endArrow=open;dashed=1;endSize=8;curved=0;rounded=0;labelBackgroundColor=none;" edge="1" parent="1">
          <mxGeometry relative="1" as="geometry">
            <mxPoint x="625" y="760" as="sourcePoint" />
            <mxPoint x="570" y="760" as="targetPoint" />
          </mxGeometry>
        </mxCell>
        <mxCell id="ntfBUJS46pO4bsrbWIn4-50" value="callback adds message to ui" style="html=1;verticalAlign=bottom;endArrow=open;dashed=1;endSize=8;curved=0;rounded=0;" edge="1" parent="1">
          <mxGeometry relative="1" as="geometry">
            <mxPoint x="560" y="770" as="sourcePoint" />
            <mxPoint x="210" y="770" as="targetPoint" />
          </mxGeometry>
        </mxCell>
        <mxCell id="ntfBUJS46pO4bsrbWIn4-53" value="" style="endArrow=classic;html=1;rounded=0;entryX=0.043;entryY=0.55;entryDx=0;entryDy=0;entryPerimeter=0;" edge="1" parent="1" source="ntfBUJS46pO4bsrbWIn4-44" target="ntfBUJS46pO4bsrbWIn4-29">
          <mxGeometry width="50" height="50" relative="1" as="geometry">
            <mxPoint x="440" y="610" as="sourcePoint" />
            <mxPoint x="789.5" y="610" as="targetPoint" />
          </mxGeometry>
        </mxCell>
        <mxCell id="ntfBUJS46pO4bsrbWIn4-54" value="" style="sketch=0;outlineConnect=0;fontColor=#232F3E;gradientColor=none;fillColor=#232F3D;strokeColor=none;dashed=0;verticalLabelPosition=bottom;verticalAlign=top;align=center;html=1;fontSize=12;fontStyle=0;aspect=fixed;pointerEvents=1;shape=mxgraph.aws4.users;" vertex="1" parent="1">
          <mxGeometry x="690" y="830" width="38" height="38" as="geometry" />
        </mxCell>
        <mxCell id="ntfBUJS46pO4bsrbWIn4-55" value="" style="endArrow=classic;html=1;rounded=0;" edge="1" parent="1" source="ntfBUJS46pO4bsrbWIn4-54" target="ntfBUJS46pO4bsrbWIn4-9">
          <mxGeometry width="50" height="50" relative="1" as="geometry">
            <mxPoint x="450" y="740" as="sourcePoint" />
            <mxPoint x="500" y="690" as="targetPoint" />
          </mxGeometry>
        </mxCell>
        <mxCell id="ntfBUJS46pO4bsrbWIn4-56" value="" style="html=1;verticalAlign=bottom;endArrow=open;dashed=1;endSize=8;curved=0;rounded=0;labelBackgroundColor=none;" edge="1" parent="1" source="ntfBUJS46pO4bsrbWIn4-9">
          <mxGeometry x="0.0024" relative="1" as="geometry">
            <mxPoint x="640" y="868" as="sourcePoint" />
            <mxPoint x="700" y="870" as="targetPoint" />
            <Array as="points">
              <mxPoint x="660" y="900" />
            </Array>
            <mxPoint as="offset" />
          </mxGeometry>
        </mxCell>
        <mxCell id="ntfBUJS46pO4bsrbWIn4-57" value="&lt;span style=&quot;color: rgb(0, 0, 0); font-family: Helvetica; font-size: 11px; font-style: normal; font-variant-ligatures: normal; font-variant-caps: normal; font-weight: 400; letter-spacing: normal; orphans: 2; text-align: center; text-indent: 0px; text-transform: none; widows: 2; word-spacing: 0px; -webkit-text-stroke-width: 0px; white-space: nowrap; text-decoration-thickness: initial; text-decoration-style: initial; text-decoration-color: initial; float: none; display: inline !important;&quot;&gt;onmessage&lt;/span&gt;" style="endArrow=classic;html=1;rounded=0;labelBackgroundColor=none;" edge="1" parent="1">
          <mxGeometry y="-9" width="50" height="50" relative="1" as="geometry">
            <mxPoint x="630" y="859" as="sourcePoint" />
            <mxPoint x="570" y="859" as="targetPoint" />
            <mxPoint as="offset" />
          </mxGeometry>
        </mxCell>
        <mxCell id="ntfBUJS46pO4bsrbWIn4-58" value="callback adds message to ui" style="html=1;verticalAlign=bottom;endArrow=open;dashed=1;endSize=8;curved=0;rounded=0;" edge="1" parent="1">
          <mxGeometry relative="1" as="geometry">
            <mxPoint x="560" y="868" as="sourcePoint" />
            <mxPoint x="210" y="868" as="targetPoint" />
          </mxGeometry>
        </mxCell>
        <mxCell id="ntfBUJS46pO4bsrbWIn4-59" value="" style="html=1;verticalAlign=bottom;endArrow=open;dashed=1;endSize=8;curved=0;rounded=0;labelBackgroundColor=none;entryX=0.544;entryY=1.003;entryDx=0;entryDy=0;entryPerimeter=0;" edge="1" parent="1" target="ntfBUJS46pO4bsrbWIn4-29">
          <mxGeometry x="0.0024" relative="1" as="geometry">
            <mxPoint x="658" y="900" as="sourcePoint" />
            <mxPoint x="728" y="870" as="targetPoint" />
            <Array as="points">
              <mxPoint x="688" y="900" />
            </Array>
            <mxPoint as="offset" />
          </mxGeometry>
        </mxCell>
      </root>
    </mxGraphModel>
  </diagram>
</mxfile>
